<?xml version="1.0" encoding="utf-8" ?>
<svg xmlns="http://www.w3.org/2000/svg" xmlns:xlink="http://www.w3.org/1999/xlink" width="328" height="327">
	<path fill="#555" d="M113.697 284.123C111.273 282.774 108.976 281.086 106.594 279.642L88.6629 268.87L72.125 259.24L29.8303 233.763C27.4019 232.273 24.7909 231.107 22.4446 229.476C21.7986 229.027 20.9015 228.543 20.4279 227.911C20.0265 227.376 20.0393 226.761 20.044 226.124L20.157 134.349L20.1414 107.385C20.1524 102.492 19.6189 96.869 20.6716 92.1184C20.8929 91.1198 22.1087 90.5636 22.9322 90.0494L44.4275 77.6836L62.7586 66.5653L79.0019 57.2087L137.375 22.1275L155.229 11.5601C156.499 10.824 157.609 9.83484 158.91 9.12347C160.493 8.2582 162.892 6.61975 164.754 7.08832L165.033 7.16425L165.285 7.22639C167.497 7.80665 169.273 9.23392 171.2 10.3827L181 16.2546L217.543 38.1806L282.558 76.975L305.06 90.1339C305.895 90.6596 306.369 91.2079 306.931 92.0013C307.255 92.458 307.7 92.8129 308.124 93.1726C308.833 98.4437 308.435 104.088 308.437 109.415L308.445 138.386L308.431 191.962L308.469 223.186C308.438 224.708 308.36 226.482 307.707 227.875L307.601 228.111C307.179 228.939 306.135 229.414 305.368 229.868L300.713 232.598L285.924 241.415L271.002 250.625L242.116 267.625L237.258 270.294L196.159 294.876C192.889 297.326 189.002 299.258 185.499 301.375L172 309.545C169.943 310.769 167.747 312.485 165.434 313.151C164.358 313.462 163.157 313.335 162.125 312.919C160.381 312.214 158.646 310.999 157.041 310.025L146.825 303.779L113.697 284.123Z"/>
	<path fill="white" d="M70.0472 137.09C74.317 137.324 79.4933 137.599 83.7171 137.042L84.0375 136.997C83.9522 138.502 84.2304 139.995 84.2402 141.5L84.0852 146.125L83.8959 161.166C83.8391 162.499 84.1678 164.554 83.3889 165.674C82.5387 166.896 82.0144 168.162 81.3057 169.443C79.476 172.751 75.5913 176.624 71.8884 177.701L71.625 177.776L71.125 177.92L71.2215 177.58C70.3654 177.576 69.9626 177.539 69.2639 178.092C69.0604 178.252 68.8578 178.42 68.625 178.538C66.974 179.379 62.1147 179.797 60.308 179.289C55.9672 178.069 51.2771 179.135 46.9384 178.353C45.497 178.093 43.9381 177.24 42.5481 176.746C39.5446 175.679 37.4256 174.332 35.1198 172.09C34.456 170.91 33.3142 169.591 32.8648 168.351C32.5321 167.433 32.4287 166.421 32.35 165.454C32.3314 165.226 32.361 164.488 32.268 164.311C32.0726 163.939 31.6438 163.534 31.3928 163.175C30.5344 161.945 30.4225 160.309 30.6597 158.875C30.9056 158.716 31.079 158.588 31.375 158.539C32.5655 158.341 47.2047 158.406 47.4342 158.576L47.5209 163.25C47.5964 163.91 47.9381 164.339 48.4407 164.741C49.5258 165.608 49.4077 166.818 50.8676 167.591C51.1256 167.728 51.3607 167.841 51.5996 168.012C52.3444 168.545 53.2324 169.068 54.111 169.344C55.0472 169.638 56.6548 169.014 57.7079 169.027C58.4984 169.037 59.7329 169.387 60.4509 169.273C61.2163 169.152 62.5433 167.787 63.2934 167.388C63.9095 167.061 64.2769 166.467 64.6367 165.883C64.8625 165.516 64.9883 165.543 65.375 165.382C65.7424 164.907 65.8512 164.904 65.7827 164.283L65.5865 164.25C67.5727 161.426 66.8517 142.587 66.8611 138.5L67.1977 144.174C67.4158 143.005 67.9822 141.865 68.1376 140.72C68.255 139.855 67.9611 138.949 68.0813 138C68.6617 137.361 69.2364 137.325 70.0472 137.09Z"/>
	<path fill="white" d="M116.047 135.371C121.267 135.221 125.968 135.463 131.09 136.451C132.821 136.785 135.363 138.477 136.875 138.072C138.696 138.817 140.399 139.794 142.007 140.927C142.175 141.045 142.818 141.422 142.875 141.542C142.94 141.68 142.898 142.092 143.08 142.418C143.559 143.277 144.321 143.797 144.967 144.513C145.568 145.179 146.1 146.017 146.8 146.584C148.235 147.748 148.891 149.799 149.57 151.466L138.368 151.505C136.226 151.487 133.649 151.175 131.56 151.596C131.253 151.657 131.096 151.519 130.813 151.399L131.284 151.125C130.833 150.711 128.696 148.788 128.262 148.706C128.093 148.674 127.92 148.794 127.75 148.768C126.768 148.621 125.463 147.345 124.312 147.107C122.542 146.74 120.621 146.779 118.819 146.831C117.704 146.863 116.408 147.126 115.336 146.829C114.958 146.724 114.768 146.649 114.392 146.794L114.198 146.875C112.212 147.634 109.216 150.252 108.278 152.141L108.165 152.375C107.502 153.532 107.825 154.453 107.798 155.723C107.752 157.968 107.631 160.172 107.721 162.42C109.194 164.937 111.036 166.093 113.37 167.642C113.851 167.961 114.313 168.26 114.84 168.501C115.588 168.843 116.278 169.242 117.125 169.111C119.789 168.696 123.286 169.707 125.491 168L125.348 167.67C127.269 166.791 129.284 165.349 130.456 163.554L130.598 163.331L141.364 163.317L149.67 163.512L148.034 166.984C146.481 170.54 143.056 174.451 139.372 175.877L138.936 176.059C137.231 176.881 135.555 177.583 133.75 178.159C129.639 179.47 125.026 179.674 120.745 179.704C117.213 179.73 113.493 179.656 110.026 178.924C107.956 178.486 106.733 177.062 104.375 177.095L104.402 177.375C103.946 177.435 103.91 177.377 103.501 177.15L103.625 176.931C103.465 176.774 103.365 176.698 103.139 176.665C102.178 176.528 101.591 175.701 100.645 175.375L100.375 175.8L97.875 174.189L97.875 173.92L98.6544 174.193C98.083 173.56 97.4254 173.071 96.75 172.558L96.322 172.922C93.9172 170.517 92.027 167.914 91.0371 164.606C89.1777 158.393 89.8263 151.914 92.913 146.288C94.1298 144.07 96.0222 142.28 98 140.748C98.2336 140.752 98.1465 140.724 98.3552 140.832L98.5 140.913C99.04 140.605 99.6308 140.321 100.011 139.814C100.226 139.527 100.375 139.368 100.667 139.159C101.303 139.234 101.724 139.143 102.326 138.931C104.536 138.149 106.274 137.29 108.625 136.891L108.063 136.689C108.916 136.224 110.565 135.909 111.559 135.861C112.118 135.834 112.747 135.932 113.273 135.733C114.06 135.436 115.194 135.448 116.047 135.371Z"/>
	<path fill="white" d="M266.411 135.357C270.718 135.068 274.979 135.26 279.25 135.853L279.359 136.072C280.934 137.155 282.276 136.834 283.989 137.341C287.006 138.233 290.444 140.171 292.533 142.495C293.174 143.208 293.482 143.988 294.014 144.75C294.569 145.543 295.25 146.063 295.711 146.955C295.85 147.223 296.035 147.271 296.29 147.426C296.553 147.903 296.667 148.175 296.66 148.723L296.4 148.625L296.081 148.875L296.5 149.196L296.787 149.001L296.889 149.397C296.135 149.515 295.553 149.491 294.804 149.351L295.357 149.002L295.02 148.625L285.165 149.49C282.52 149.649 278.605 150.058 276.517 148.177C276.241 147.928 275.601 147.2 275.286 147.07C274.511 146.749 272.399 146.846 271.514 146.844C269.542 146.837 266.7 146.696 265.269 148.125C264.662 148.731 263.625 149.433 263.625 150.294C264.379 150.436 264.485 150.711 265.058 151.125C265.5 151.444 265.978 151.376 266.459 151.527C267.891 151.978 269.152 152.114 270.625 152.386C273.073 152.837 274.73 153.193 277.24 152.894L277.125 152.639C277.916 152.385 278.831 152.599 279.644 152.684C281.367 152.866 283.306 152.967 284.96 153.515L288.204 154.34L288.06 154.75L288.5 154.947C290.124 155.619 291.928 156.606 293.375 157.617C293.844 157.945 295.178 158.814 295.445 159.257C295.783 159.819 296.038 162.251 296.151 162.98C296.287 163.863 295.962 164.416 295.802 165.25C295.622 166.192 295.697 167.194 295.44 168.125C295.164 169.122 293.565 171.128 292.875 172.019C291.813 173.391 288.194 176.195 286.515 176.387C284.636 176.603 283.48 177.835 281.786 178.335C279.832 178.911 276.66 178.51 274.57 178.51L261.345 178.535C260.071 178.392 258.712 177.562 257.485 177.137C253.931 175.903 250.567 173.959 248.765 170.467C248.153 169.283 247.455 167.64 246.627 166.625L246.385 166.978C246.022 166.608 245.996 166.244 245.859 165.75C246.173 165.773 246.318 165.72 246.612 165.625L246.182 165.375L246.986 165.355L246.759 165.601C247.76 166.069 249.152 166.02 250.25 166.028C252.897 166.047 255.765 166.129 258.357 165.579L255.796 165.39C257.522 165.359 260.224 164.939 261.791 165.685C263.321 166.414 264.794 166.788 266.253 167.756C266.768 168.097 268.2 169.406 268.72 169.524C270.001 169.814 272.299 169.47 273.699 169.494L274.104 169.495C274.664 169.437 275.331 168.761 275.786 168.442C276.715 167.792 277.656 167.571 278.41 166.659C278.893 166.075 278.511 164.107 278.424 163.375C277.919 162.841 277.741 162.818 277.019 162.625L276.487 163.125C275.035 163.396 273.157 163.123 271.666 163.066C264.859 162.805 256.02 162.597 250.076 159.031C248.17 157.888 246.386 156.172 245.875 153.937C245.163 150.82 245.816 147.574 247.508 144.884C249.306 142.025 252.354 138.624 255.829 137.883L255.999 137.852L256.167 137.625C259.673 136.624 262.776 135.794 266.411 135.357Z"/>
	<path fill="white" d="M158.575 136.135L176.316 136.074C176.375 136.424 177.911 137.621 178.246 137.92C178.713 138.337 178.863 138.635 179.523 138.599C179.78 138.949 179.798 139.031 179.85 139.465L180.125 139.504C181.538 140.899 182.204 142.938 183.354 144.503C183.615 144.858 183.732 145.297 184.006 145.628C184.734 146.511 185.398 147.622 185.99 148.606L186.125 148.837C186.371 149.239 186.699 149.618 186.716 150.11L186.716 150.375C187.938 151.073 189.382 153.901 190.143 155.105L189.991 155.625C190.355 156.528 190.607 157.148 191.375 157.787L191.625 157.508C192.316 158.795 193.768 160.274 194.091 161.665L194.324 162.488L194.519 162.315L194.749 162.639L194.529 163C195.308 164.201 195.927 165.779 197.125 166.498C199.477 164.213 200.971 161.541 202.68 158.775L208.399 149.639C211.14 145.286 214.378 140.906 216.634 136.291L238.228 136.131L238.291 167.43L238.22 173.199C238.154 174.348 237.889 175.612 237.924 176.75C237.949 177.549 238.405 177.904 238.035 178.789C236.854 179.268 234.559 178.979 233.257 178.984L220.238 178.917C220.375 177.604 220.517 176.377 220.292 175.062L220.247 152.129L220.145 152.098L204.492 178.791C202.816 179.094 201.027 178.984 199.328 178.989L190.75 178.94C190.128 178.313 190.352 177.514 189.912 176.768C189.517 176.635 189.422 176.402 189.225 176.04L184.946 168.564C183.852 166.718 181.981 164.541 181.298 162.526C180.997 161.636 180.411 161.04 179.939 160.245C178.804 158.337 177.657 156.272 176.375 154.473L176.595 154.125L176.375 153.634C176.03 153.469 175.816 153.392 175.574 153.089C175.346 152.804 175.186 152.712 174.875 152.524C174.295 153.617 174.75 157.334 174.751 158.777L174.664 172.803C174.63 174.12 173.974 175.734 174.401 177.027L174.517 177.375C174.656 177.983 174.778 178.361 174.428 178.875L156.574 178.942L156.628 144.403L156.637 138.24C156.637 137.825 156.503 136.827 156.639 136.5C156.685 136.391 156.796 136.322 156.875 136.234L158.575 136.135Z"/>
</svg>
